{
  "accessors": [
    {
      "bufferView": 2,
      "componentType": 5126,
      "count": 38157,
      "max": [
        0.427735835313797,
        0.9999998807907104,
        0.05286162346601486
      ],
      "min": [
        -0.42865949869155884,
        -0.9999983310699463,
        -0.052861835807561874
      ],
      "type": "VEC3"
    },
    {
      "bufferView": 2,
      "byteOffset": 457884,
      "componentType": 5126,
      "count": 38157,
      "max": [
        1.0,
        1.0,
        1.0
      ],
      "min": [
        -1.0,
        -1.0,
        -1.0
      ],
      "type": "VEC3"
    },
    {
      "bufferView": 3,
      "componentType": 5126,
      "count": 38157,
      "max": [
        1.0,
        1.0,
        1.0,
        1.0
      ],
      "min": [
        -1.0,
        -1.0,
        -1.0,
        -1.0
      ],
      "type": "VEC4"
    },
    {
      "bufferView": 1,
      "componentType": 5126,
      "count": 38157,
      "max": [
        0.9979189038276672,
        0.9922028183937073
      ],
      "min": [
        0.006456767208874226,
        0.0035088062286376953
      ],
      "type": "VEC2"
    },
    {
      "bufferView": 1,
      "byteOffset": 305256,
      "componentType": 5126,
      "count": 38157,
      "max": [
        0.9979189038276672,
        0.9922028183937073
      ],
      "min": [
        0.006456767208874226,
        0.0035088062286376953
      ],
      "type": "VEC2"
    },
    {
      "bufferView": 1,
      "byteOffset": 610512,
      "componentType": 5126,
      "count": 38157,
      "max": [
        0.9979189038276672,
        0.9922028183937073
      ],
      "min": [
        0.006456767208874226,
        0.0035088062286376953
      ],
      "type": "VEC2"
    },
    {
      "bufferView": 1,
      "byteOffset": 915768,
      "componentType": 5126,
      "count": 38157,
      "max": [
        0.9979189038276672,
        0.9922028183937073
      ],
      "min": [
        0.006456767208874226,
        0.0035088062286376953
      ],
      "type": "VEC2"
    },
    {
      "bufferView": 1,
      "byteOffset": 1221024,
      "componentType": 5126,
      "count": 38157,
      "max": [
        0.9979189038276672,
        0.9922028183937073
      ],
      "min": [
        0.006456767208874226,
        0.0035088062286376953
      ],
      "type": "VEC2"
    },
    {
      "bufferView": 0,
      "componentType": 5125,
      "count": 204420,
      "type": "SCALAR"
    }
  ],
  "asset": {
    "extras": {
      "author": "DailyArt (https://sketchfab.com/D.art)",
      "license": "CC-BY-NC-4.0 (http://creativecommons.org/licenses/by-nc/4.0/)",
      "source": "https://sketchfab.com/3d-models/chinese-knotting-f81d73c4916b4c918d2a38f53552ee08",
      "title": "Chinese knotting"
    },
    "generator": "Sketchfab-12.66.0",
    "version": "2.0"
  },
  "bufferViews": [
    {
      "buffer": 0,
      "byteLength": 817680,
      "name": "floatBufferViews",
      "target": 34963
    },
    {
      "buffer": 0,
      "byteLength": 1526280,
      "byteOffset": 817680,
      "byteStride": 8,
      "name": "floatBufferViews",
      "target": 34962
    },
    {
      "buffer": 0,
      "byteLength": 915768,
      "byteOffset": 2343960,
      "byteStride": 12,
      "name": "floatBufferViews",
      "target": 34962
    },
    {
      "buffer": 0,
      "byteLength": 610512,
      "byteOffset": 3259728,
      "byteStride": 16,
      "name": "floatBufferViews",
      "target": 34962
    }
  ],
  "buffers": [
    {
      "byteLength": 3870240,
      "uri": "scene.bin"
    }
  ],
  "images": [
    {
      "uri": "textures/initialShadingGroup_baseColor.png"
    },
    {
      "uri": "textures/initialShadingGroup_metallicRoughness.png"
    },
    {
      "uri": "textures/initialShadingGroup_normal.png"
    }
  ],
  "materials": [
    {
      "name": "initialShadingGroup",
      "normalTexture": {
        "index": 2
      },
      "occlusionTexture": {
        "index": 1
      },
      "pbrMetallicRoughness": {
        "baseColorTexture": {
          "index": 0
        },
        "metallicRoughnessTexture": {
          "index": 1
        }
      }
    }
  ],
  "meshes": [
    {
      "name": "Object_0",
      "primitives": [
        {
          "attributes": {
            "NORMAL": 1,
            "POSITION": 0,
            "TANGENT": 2,
            "TEXCOORD_0": 3,
            "TEXCOORD_1": 4,
            "TEXCOORD_2": 5,
            "TEXCOORD_3": 6,
            "TEXCOORD_4": 7
          },
          "indices": 8,
          "material": 0,
          "mode": 4
        }
      ]
    }
  ],
  "nodes": [
    {
      "children": [
        1
      ],
      "matrix": [
        1.0,
        0.0,
        0.0,
        0.0,
        0.0,
        2.220446049250313e-16,
        -1.0,
        0.0,
        0.0,
        1.0,
        2.220446049250313e-16,
        0.0,
        0.0,
        0.0,
        0.0,
        1.0
      ],
      "name": "Sketchfab_model"
    },
    {
      "children": [
        2
      ],
      "name": "root"
    },
    {
      "children": [
        3
      ],
      "matrix": [
        1.0,
        0.0,
        0.0,
        0.0,
        0.0,
        2.220446049250313e-16,
        1.0,
        0.0,
        0.0,
        -1.0,
        2.220446049250313e-16,
        0.0,
        0.0,
        0.0,
        0.0,
        1.0
      ],
      "name": "GLTF_SceneRootNode"
    },
    {
      "children": [
        4
      ],
      "matrix": [
        62.92283630371094,
        0.0,
        0.0,
        0.0,
        0.0,
        62.92283630371094,
        0.0,
        0.0,
        0.0,
        0.0,
        62.92283630371094,
        0.0,
        -61.36386489868164,
        -39.22332000732422,
        -1.656982421875,
        1.0
      ],
      "name": "root_0"
    },
    {
      "children": [
        5
      ],
      "name": "Line110_1"
    },
    {
      "children": [
        6
      ],
      "name": "Line110_2"
    },
    {
      "mesh": 0,
      "name": "Object_6"
    }
  ],
  "samplers": [
    {
      "magFilter": 9729,
      "minFilter": 9987,
      "wrapS": 10497,
      "wrapT": 10497
    }
  ],
  "scene": 0,
  "scenes": [
    {
      "name": "Sketchfab_Scene",
      "nodes": [
        0
      ]
    }
  ],
  "textures": [
    {
      "sampler": 0,
      "source": 0
    },
    {
      "sampler": 0,
      "source": 1
    },
    {
      "sampler": 0,
      "source": 2
    }
  ]
}
