{
  "accessors": [
    {
      "bufferView": 2,
      "componentType": 5126,
      "count": 2320,
      "max": [
        7.149442195892334,
        6.958887100219727,
        21.68948745727539
      ],
      "min": [
        -8.105707168579102,
        -11.733691215515137,
        1.464890956878662
      ],
      "type": "VEC3"
    },
    {
      "bufferView": 2,
      "byteOffset": 27840,
      "componentType": 5126,
      "count": 2320,
      "max": [
        0.9994378685951233,
        1.0,
        1.0
      ],
      "min": [
        -0.9997696280479431,
        -1.0,
        -1.0
      ],
      "type": "VEC3"
    },
    {
      "bufferView": 1,
      "componentType": 5126,
      "count": 2320,
      "max": [
        0.9800609946250916,
        0.6904810070991516
      ],
      "min": [
        0.012098000384867191,
        0.014316000044345856
      ],
      "type": "VEC2"
    },
    {
      "bufferView": 0,
      "componentType": 5125,
      "count": 5241,
      "type": "SCALAR"
    },
    {
      "bufferView": 2,
      "byteOffset": 55680,
      "componentType": 5126,
      "count": 11803,
      "max": [
        11.125207901000977,
        9.116337776184082,
        21.68948745727539
      ],
      "min": [
        -7.930910110473633,
        -16.802406311035156,
        0.44897300004959106
      ],
      "type": "VEC3"
    },
    {
      "bufferView": 2,
      "byteOffset": 197316,
      "componentType": 5126,
      "count": 11803,
      "max": [
        1.0,
        1.0,
        1.0
      ],
      "min": [
        -1.0,
        -1.0,
        -1.0
      ],
      "type": "VEC3"
    },
    {
      "bufferView": 1,
      "byteOffset": 18560,
      "componentType": 5126,
      "count": 11803,
      "max": [
        1.545976996421814,
        0.9878469705581665
      ],
      "min": [
        -0.2715669870376587,
        0.005785999819636345
      ],
      "type": "VEC2"
    },
    {
      "bufferView": 0,
      "byteOffset": 20964,
      "componentType": 5125,
      "count": 17496,
      "type": "SCALAR"
    },
    {
      "bufferView": 2,
      "byteOffset": 338952,
      "componentType": 5126,
      "count": 9996,
      "max": [
        14.437313079833984,
        10.189542770385742,
        12.391708374023438
      ],
      "min": [
        -8.028152465820313,
        -20.464038848876953,
        0.08715900033712387
      ],
      "type": "VEC3"
    },
    {
      "bufferView": 2,
      "byteOffset": 458904,
      "componentType": 5126,
      "count": 9996,
      "max": [
        1.0,
        1.0,
        1.0
      ],
      "min": [
        -1.0,
        -1.0,
        -1.0
      ],
      "type": "VEC3"
    },
    {
      "bufferView": 1,
      "byteOffset": 112984,
      "componentType": 5126,
      "count": 9996,
      "max": [
        1.5469520092010498,
        0.9891690015792847
      ],
      "min": [
        -0.27588799595832825,
        -0.001424000016413629
      ],
      "type": "VEC2"
    },
    {
      "bufferView": 0,
      "byteOffset": 90948,
      "componentType": 5125,
      "count": 22896,
      "type": "SCALAR"
    },
    {
      "bufferView": 2,
      "byteOffset": 578856,
      "componentType": 5126,
      "count": 9992,
      "max": [
        8.31032943725586,
        6.5383381843566895,
        19.506988525390625
      ],
      "min": [
        -6.941504001617432,
        -16.1176700592041,
        2.5748729705810547
      ],
      "type": "VEC3"
    },
    {
      "bufferView": 2,
      "byteOffset": 698760,
      "componentType": 5126,
      "count": 9992,
      "max": [
        0.9999674558639526,
        0.9999970197677612,
        1.0
      ],
      "min": [
        -0.9999843835830688,
        -1.0,
        -0.9999826550483704
      ],
      "type": "VEC3"
    },
    {
      "bufferView": 1,
      "byteOffset": 192952,
      "componentType": 5126,
      "count": 9992,
      "max": [
        0.948665976524353,
        0.7969989776611328
      ],
      "min": [
        0.026813000440597534,
        0.1699499934911728
      ],
      "type": "VEC2"
    },
    {
      "bufferView": 0,
      "byteOffset": 182532,
      "componentType": 5125,
      "count": 25422,
      "type": "SCALAR"
    },
    {
      "bufferView": 2,
      "byteOffset": 818664,
      "componentType": 5126,
      "count": 9960,
      "max": [
        6.817471981048584,
        6.66900110244751,
        21.295198440551758
      ],
      "min": [
        -6.724602222442627,
        -13.770025253295898,
        2.691617012023926
      ],
      "type": "VEC3"
    },
    {
      "bufferView": 2,
      "byteOffset": 938184,
      "componentType": 5126,
      "count": 9960,
      "max": [
        1.0,
        1.0,
        1.0
      ],
      "min": [
        -1.0,
        -1.0,
        -1.0
      ],
      "type": "VEC3"
    },
    {
      "bufferView": 1,
      "byteOffset": 272888,
      "componentType": 5126,
      "count": 9960,
      "max": [
        0.9954180121421814,
        0.9352849721908569
      ],
      "min": [
        0.008882000111043453,
        0.016174999997019768
      ],
      "type": "VEC2"
    },
    {
      "bufferView": 0,
      "byteOffset": 284220,
      "componentType": 5125,
      "count": 25302,
      "type": "SCALAR"
    },
    {
      "bufferView": 2,
      "byteOffset": 1057704,
      "componentType": 5126,
      "count": 1528,
      "max": [
        10.877714157104492,
        8.86885929107666,
        19.606218338012695
      ],
      "min": [
        -5.490943908691406,
        -11.775544166564941,
        2.793478012084961
      ],
      "type": "VEC3"
    },
    {
      "bufferView": 2,
      "byteOffset": 1076040,
      "componentType": 5126,
      "count": 1528,
      "max": [
        0.7665781378746033,
        0.9986863732337952,
        1.0
      ],
      "min": [
        -0.7654889822006226,
        -0.9989553689956665,
        -0.8745141625404358
      ],
      "type": "VEC3"
    },
    {
      "bufferView": 1,
      "byteOffset": 352568,
      "componentType": 5126,
      "count": 1528,
      "max": [
        0.4491170048713684,
        0.6516100168228149
      ],
      "min": [
        0.012555000372231007,
        0.027633000165224075
      ],
      "type": "VEC2"
    },
    {
      "bufferView": 0,
      "byteOffset": 385428,
      "componentType": 5125,
      "count": 3681,
      "type": "SCALAR"
    },
    {
      "bufferView": 2,
      "byteOffset": 1094376,
      "componentType": 5126,
      "count": 9995,
      "max": [
        16.015199661254883,
        12.992399215698242,
        14.874755859375
      ],
      "min": [
        -13.370454788208008,
        -22.126415252685547,
        -1.753005027770996
      ],
      "type": "VEC3"
    },
    {
      "bufferView": 2,
      "byteOffset": 1214316,
      "componentType": 5126,
      "count": 9995,
      "max": [
        1.0,
        1.0,
        1.0
      ],
      "min": [
        -1.0,
        -1.0,
        -0.9999494552612305
      ],
      "type": "VEC3"
    },
    {
      "bufferView": 1,
      "byteOffset": 364792,
      "componentType": 5126,
      "count": 9995,
      "max": [
        0.9931049942970276,
        0.9962409734725952
      ],
      "min": [
        0.001905999961309135,
        0.005702999886125326
      ],
      "type": "VEC2"
    },
    {
      "bufferView": 0,
      "byteOffset": 400152,
      "componentType": 5125,
      "count": 19938,
      "type": "SCALAR"
    },
    {
      "bufferView": 2,
      "byteOffset": 1334256,
      "componentType": 5126,
      "count": 4392,
      "max": [
        14.30674934387207,
        12.29287338256836,
        14.874755859375
      ],
      "min": [
        -10.1128568649292,
        -22.126415252685547,
        -1.753005027770996
      ],
      "type": "VEC3"
    },
    {
      "bufferView": 2,
      "byteOffset": 1386960,
      "componentType": 5126,
      "count": 4392,
      "max": [
        1.0,
        1.0,
        1.0
      ],
      "min": [
        -1.0,
        -1.0,
        -1.0
      ],
      "type": "VEC3"
    },
    {
      "bufferView": 1,
      "byteOffset": 444752,
      "componentType": 5126,
      "count": 4392,
      "max": [
        0.9937859773635864,
        0.8398069739341736
      ],
      "min": [
        0.016354000195860863,
        0.0016250000335276127
      ],
      "type": "VEC2"
    },
    {
      "bufferView": 0,
      "byteOffset": 479904,
      "componentType": 5125,
      "count": 11850,
      "type": "SCALAR"
    },
    {
      "bufferView": 2,
      "byteOffset": 1439664,
      "componentType": 5126,
      "count": 56,
      "max": [
        7.378850936889648,
        12.992399215698242,
        0.17388400435447693
      ],
      "min": [
        -4.172458171844482,
        -22.126415252685547,
        -1.308750033378601
      ],
      "type": "VEC3"
    },
    {
      "bufferView": 2,
      "byteOffset": 1440336,
      "componentType": 5126,
      "count": 56,
      "max": [
        0.04839502274990082,
        0.7802287936210632,
        1.0
      ],
      "min": [
        -0.155924990773201,
        -0.7552350163459778,
        0.6181639432907104
      ],
      "type": "VEC3"
    },
    {
      "bufferView": 1,
      "byteOffset": 479888,
      "componentType": 5126,
      "count": 56,
      "max": [
        0.8052880167961121,
        0.44544899463653564
      ],
      "min": [
        0.6886720061302185,
        0.014589999802410603
      ],
      "type": "VEC2"
    },
    {
      "bufferView": 0,
      "byteOffset": 527304,
      "componentType": 5125,
      "count": 171,
      "type": "SCALAR"
    }
  ],
  "asset": {
    "extras": {
      "author": "Lobke Van Gheluwe (https://sketchfab.com/LobkeVGH)",
      "license": "CC-BY-4.0 (http://creativecommons.org/licenses/by/4.0/)",
      "source": "https://sketchfab.com/3d-models/chinese-painters-little-house-dae-villages-8766d27434a34a238f0f99a325fb6b45",
      "title": "Chinese Painter's Little House - DAE Villages"
    },
    "generator": "Sketchfab-12.66.0",
    "version": "2.0"
  },
  "bufferViews": [
    {
      "buffer": 0,
      "byteLength": 527988,
      "name": "floatBufferViews",
      "target": 34963
    },
    {
      "buffer": 0,
      "byteLength": 480336,
      "byteOffset": 527988,
      "byteStride": 8,
      "name": "floatBufferViews",
      "target": 34962
    },
    {
      "buffer": 0,
      "byteLength": 1441008,
      "byteOffset": 1008324,
      "byteStride": 12,
      "name": "floatBufferViews",
      "target": 34962
    }
  ],
  "buffers": [
    {
      "byteLength": 2449332,
      "uri": "scene.bin"
    }
  ],
  "images": [
    {
      "uri": "textures/building_sg_baseColor.jpeg"
    },
    {
      "uri": "textures/environment_sg_baseColor.jpeg"
    }
  ],
  "materials": [
    {
      "doubleSided": true,
      "name": "building_sg",
      "pbrMetallicRoughness": {
        "baseColorTexture": {
          "index": 0
        },
        "metallicFactor": 0.0
      }
    },
    {
      "doubleSided": true,
      "name": "environment_sg",
      "pbrMetallicRoughness": {
        "baseColorTexture": {
          "index": 1
        },
        "metallicFactor": 0.0
      }
    },
    {
      "alphaMode": "BLEND",
      "doubleSided": true,
      "name": "water_sg",
      "pbrMetallicRoughness": {
        "baseColorFactor": [
          1.0,
          1.0,
          1.0,
          0.8407739452
        ],
        "baseColorTexture": {
          "index": 1
        },
        "metallicFactor": 0.0,
        "roughnessFactor": 0.8772549842
      }
    }
  ],
  "meshes": [
    {
      "name": "Object_0",
      "primitives": [
        {
          "attributes": {
            "NORMAL": 1,
            "POSITION": 0,
            "TEXCOORD_0": 2
          },
          "indices": 3,
          "material": 0,
          "mode": 4
        }
      ]
    },
    {
      "name": "Object_1",
      "primitives": [
        {
          "attributes": {
            "NORMAL": 5,
            "POSITION": 4,
            "TEXCOORD_0": 6
          },
          "indices": 7,
          "material": 0,
          "mode": 4
        }
      ]
    },
    {
      "name": "Object_2",
      "primitives": [
        {
          "attributes": {
            "NORMAL": 9,
            "POSITION": 8,
            "TEXCOORD_0": 10
          },
          "indices": 11,
          "material": 0,
          "mode": 4
        }
      ]
    },
    {
      "name": "Object_3",
      "primitives": [
        {
          "attributes": {
            "NORMAL": 13,
            "POSITION": 12,
            "TEXCOORD_0": 14
          },
          "indices": 15,
          "material": 0,
          "mode": 4
        }
      ]
    },
    {
      "name": "Object_4",
      "primitives": [
        {
          "attributes": {
            "NORMAL": 17,
            "POSITION": 16,
            "TEXCOORD_0": 18
          },
          "indices": 19,
          "material": 0,
          "mode": 4
        }
      ]
    },
    {
      "name": "Object_5",
      "primitives": [
        {
          "attributes": {
            "NORMAL": 21,
            "POSITION": 20,
            "TEXCOORD_0": 22
          },
          "indices": 23,
          "material": 0,
          "mode": 4
        }
      ]
    },
    {
      "name": "Object_6",
      "primitives": [
        {
          "attributes": {
            "NORMAL": 25,
            "POSITION": 24,
            "TEXCOORD_0": 26
          },
          "indices": 27,
          "material": 1,
          "mode": 4
        }
      ]
    },
    {
      "name": "Object_7",
      "primitives": [
        {
          "attributes": {
            "NORMAL": 29,
            "POSITION": 28,
            "TEXCOORD_0": 30
          },
          "indices": 31,
          "material": 1,
          "mode": 4
        }
      ]
    },
    {
      "name": "Object_8",
      "primitives": [
        {
          "attributes": {
            "NORMAL": 33,
            "POSITION": 32,
            "TEXCOORD_0": 34
          },
          "indices": 35,
          "material": 2,
          "mode": 4
        }
      ]
    }
  ],
  "nodes": [
    {
      "children": [
        1
      ],
      "matrix": [
        2.220446049250313e-16,
        -3.828568672208042e-16,
        1.0,
        0.0,
        1.0,
        1.6081226229577296e-16,
        -2.2204460492503128e-16,
        0.0,
        -1.6081226229577292e-16,
        1.0,
        3.828568672208042e-16,
        0.0,
        5.8892083168029785,
        1.0559185777063809e-15,
        3.244565486907959,
        1.0
      ],
      "name": "Sketchfab_model"
    },
    {
      "children": [
        2,
        3,
        4,
        5,
        6,
        7,
        8,
        9,
        10
      ],
      "name": "GameArtExam_Export.obj.cleaner.materialmerger.gles"
    },
    {
      "mesh": 0,
      "name": "Object_2"
    },
    {
      "mesh": 1,
      "name": "Object_3"
    },
    {
      "mesh": 2,
      "name": "Object_4"
    },
    {
      "mesh": 3,
      "name": "Object_5"
    },
    {
      "mesh": 4,
      "name": "Object_6"
    },
    {
      "mesh": 5,
      "name": "Object_7"
    },
    {
      "mesh": 6,
      "name": "Object_8"
    },
    {
      "mesh": 7,
      "name": "Object_9"
    },
    {
      "mesh": 8,
      "name": "Object_10"
    }
  ],
  "samplers": [
    {
      "magFilter": 9729,
      "minFilter": 9987,
      "wrapS": 10497,
      "wrapT": 10497
    }
  ],
  "scene": 0,
  "scenes": [
    {
      "name": "Sketchfab_Scene",
      "nodes": [
        0
      ]
    }
  ],
  "textures": [
    {
      "sampler": 0,
      "source": 0
    },
    {
      "sampler": 0,
      "source": 1
    }
  ]
}
